<svg id="svg" version="1.1" xmlns="http://www.w3.org/2000/svg" xmlns:xlink="http://www.w3.org/1999/xlink" width="400" height="374.54545454545456" viewBox="0, 0, 400,374.54545454545456"><g id="svgg"><path id="path0" d="M193.865 0.282 C 111.801 4.557,64.301 97.524,108.280 167.792 C 124.438 193.610,157.420 213.854,173.903 208.072 C 183.062 204.860,182.144 191.274,171.680 175.195 C 158.913 155.576,159.449 135.200,173.086 121.683 C 188.905 106.005,211.225 106.002,226.893 121.677 C 240.686 135.475,241.208 155.352,228.302 175.325 C 223.510 182.742,220.466 190.471,219.860 196.765 C 217.443 221.860,264.895 205.690,287.848 173.596 C 338.103 103.329,291.265 4.771,205.473 0.258 C 200.196 -0.019,199.629 -0.018,193.865 0.282 M40.909 207.945 C 9.420 211.257,-8.271 229.962,3.678 247.308 C 6.564 251.496,14.432 261.161,36.510 287.634 C 41.501 293.619,46.161 299.229,46.866 300.102 C 47.571 300.974,48.806 302.448,49.609 303.377 C 51.130 305.135,54.604 309.261,59.230 314.805 C 62.015 318.142,75.656 334.318,80.367 339.870 C 107.453 371.791,106.818 371.110,111.403 373.149 C 125.481 379.408,145.141 362.355,152.196 337.765 C 161.150 306.557,154.640 272.636,135.105 248.718 C 111.195 219.444,76.084 204.246,40.909 207.945 M341.299 207.711 C 310.120 210.051,281.814 226.122,261.784 252.857 C 233.629 290.437,240.079 355.453,273.636 372.325 C 281.145 376.100,288.468 374.996,294.416 369.190 C 295.130 368.493,299.630 363.311,304.416 357.674 C 309.201 352.038,314.870 345.366,317.013 342.847 C 319.156 340.327,322.370 336.533,324.156 334.414 C 325.942 332.295,328.113 329.734,328.981 328.722 C 329.849 327.711,333.457 323.435,336.999 319.221 C 340.541 315.006,343.688 311.266,343.992 310.908 C 351.502 302.080,381.780 265.805,386.484 260.000 C 399.118 244.409,400.263 242.311,399.933 235.362 C 399.092 217.660,372.957 205.335,341.299 207.711 " stroke="none" fill="#047cbc" fill-rule="evenodd"></path><path id="path1" d="" stroke="none" fill="#087cbc" fill-rule="evenodd"></path><path id="path2" d="" stroke="none" fill="#087cbc" fill-rule="evenodd"></path><path id="path3" d="" stroke="none" fill="#087cbc" fill-rule="evenodd"></path><path id="path4" d="" stroke="none" fill="#087cbc" fill-rule="evenodd"></path></g></svg>